<?xml version="1.0" encoding="UTF-8"?>
<svg width="1194px" height="115px" viewBox="0 0 1194 115" version="1.1" xmlns="http://www.w3.org/2000/svg" xmlns:xlink="http://www.w3.org/1999/xlink">
    <title>V27Series</title>
    <g id="页面-1" stroke="none" stroke-width="1" fill="none" fill-rule="evenodd">
        <g id="Global-wap" transform="translate(-338.000000, -475.000000)" fill="#242933" fill-rule="nonzero">
            <g id="编组-2" transform="translate(338.000000, 475.000000)">
                <path d="M62.1512195,114 C67.998374,114 72.5853659,112.74169 75.9121951,110.225071 C78.7349593,108.111111 81.2552846,104.537512 83.4731707,99.5042735 L83.4731707,99.5042735 L124,8 L102.678049,8 L66.9902439,91.048433 C65.6796748,93.8670465 64.0666667,95.2763533 62.1512195,95.2763533 C60.0341463,95.2763533 58.3203252,93.8670465 57.0097561,91.048433 L57.0097561,91.048433 L21.6243902,8 L0,8 L40.6780488,99.5042735 C42.795122,104.537512 45.3658537,108.161443 48.3902439,110.376068 C51.7170732,112.792023 56.304065,114 62.1512195,114 Z M227.431048,112 L227.431048,94.9373219 L155.651499,94.9373219 L155.651499,89.6524217 C155.651499,84.7198481 156.961161,81.045584 159.580485,78.6296296 C162.199809,76.2136752 167.23697,73.9990503 174.691969,71.985755 L174.691969,71.985755 L197.20808,65.9458689 C208.390578,62.9259259 216.24855,59.6039886 220.781995,55.980057 C226.927332,51.0474834 230,44.0009497 230,34.8404558 C230,24.6733143 226.373244,17.3247863 219.119732,12.7948718 C211.966963,8.26495726 200.280748,6 184.061089,6 C168.949605,6 154.089979,7.50997151 139.482212,10.5299145 L139.482212,10.5299145 L139.482212,27.8945869 C152.175858,24.6733143 166.229538,23.0626781 181.643252,23.0626781 C192.422777,23.0626781 199.827404,24.0189934 203.857133,25.9316239 C207.786119,27.7435897 209.750612,31.0151947 209.750612,35.7464387 C209.750612,39.8736942 207.987605,43.0949668 204.461592,45.4102564 C201.842268,47.1215575 196.956222,48.9335233 189.803453,50.8461538 L189.803453,50.8461538 L164.265045,57.037037 C150.563966,60.7616334 142.202279,66.1471985 139.179982,73.1937322 C136.963631,77.9249763 135.905827,83.8138651 136.00657,90.8603989 L136.00657,90.8603989 L136.00657,112 L227.431048,112 Z M283.823353,112 L339.464072,29.1014493 C342.488024,24.9816425 344,21.163285 344,17.6463768 C344,14.6318841 343.092814,12.3207729 341.278443,10.7130435 C339.262475,8.90434783 336.188124,8 332.055389,8 L332.055389,8 L243,8 L243,25.0318841 L320.866766,25.0318841 L260.387725,112 L283.823353,112 Z M450.337621,114 C467.263666,114 479.605573,111.579832 487.363344,106.739496 C495.121115,101.89916 499,94.1344538 499,83.4453782 C499,74.6722689 496.279743,67.9159664 490.839228,63.1764706 C486.204716,59.1428571 478.950697,55.9663866 469.07717,53.6470588 L469.07717,53.6470588 L442.4791,48.3529412 C436.232583,46.7394958 431.900322,45.1260504 429.482315,43.512605 C426.459807,41.394958 424.948553,38.4705882 424.948553,34.7394958 C424.948553,30.4033613 426.862808,27.3781513 430.691318,25.6638655 C434.92283,23.7478992 442.630225,22.789916 453.813505,22.789916 C467.817792,22.789916 481.016077,24.2016807 493.40836,27.0252101 L493.40836,27.0252101 L493.40836,9.93277311 C482.12433,7.31092437 468.623794,6 452.906752,6 C435.879957,6 423.6388,8.31932773 416.18328,12.9579832 C408.72776,17.5966387 405,25.0588235 405,35.3445378 C405,44.0168067 407.770632,50.6722689 413.311897,55.3109244 C417.744909,59.0420168 424.797428,62.0672269 434.469453,64.3865546 L434.469453,64.3865546 L461.672026,69.9831933 C468.019293,71.5966387 472.401929,73.3109244 474.819936,75.1260504 C477.640943,77.2436975 479.051447,80.1680672 479.051447,83.8991597 C479.051447,88.6386555 477.036442,91.9663866 473.006431,93.8823529 C468.77492,95.8991597 461.269025,96.907563 450.488746,96.907563 C435.174705,96.907563 420.465166,94.9915966 406.360129,91.1596639 L406.360129,91.1596639 L406.360129,108.705882 C419.054662,112.235294 433.713826,114 450.337621,114 Z M559.337812,114 C571.973768,114 581.627639,112.693384 588.299424,110.080153 L588.299424,110.080153 L588.299424,94.7022901 C578.696097,97.5165394 569.598209,98.9236641 561.005758,98.9236641 C550.998081,99.024173 543.871401,97.6170483 539.62572,94.7022901 C535.278951,91.7875318 532.802303,86.9128499 532.195777,80.0782443 L532.195777,80.0782443 L592.090211,80.0782443 C592.696737,76.4599237 593,72.3390585 593,67.7156489 C593,57.966285 590.119002,50.2773537 584.357006,44.648855 C577.786308,38.216285 567.829175,35 554.485605,35 C541.445298,35 531.488164,38.216285 524.614203,44.648855 C517.538068,51.2824427 514,61.1323155 514,74.1984733 C514,88.0687023 517.43698,98.1195929 524.31094,104.351145 C531.387076,110.783715 543.0627,114 559.337812,114 Z M574.981258,67 L533,67 C533.699688,60.7478992 535.848728,56.1596639 539.447122,53.2352941 C542.94556,50.4117647 548.193217,49 555.190094,49 C562.386881,49 567.58456,50.512605 570.783133,53.5378151 C573.781794,56.3613445 575.181169,60.8487395 574.981258,67 L574.981258,67 Z M630.756303,112 L630.756303,55.3027344 C640.134454,53.999349 651.882353,53.1972656 666,52.8964844 L666,52.8964844 L666,35 C652.689076,35.1002604 640.336134,37.9576823 628.941176,43.5722656 L628.941176,43.5722656 L621.226891,37.8574219 C619.008403,35.952474 617.092437,35 615.478992,35 C613.159664,35 612,36.2532552 612,38.7597656 L612,38.7597656 L612,112 L630.756303,112 Z M688.071326,22.65 C690.011357,24.45 691.900334,24.45 693.738258,22.65 L693.738258,22.65 L702.468397,14.85 C704.510534,13.15 704.510534,11.3 702.468397,9.3 L702.468397,9.3 L693.738258,1.35 C691.900334,-0.45 690.011357,-0.45 688.071326,1.35 L688.071326,1.35 L679.341188,9.3 C677.503264,11.3 677.554317,13.15 679.494348,14.85 L679.494348,14.85 L688.071326,22.65 Z M701,112 L701,37 L682,37 L682,112 L701,112 Z M765.337812,114 C777.973768,114 787.627639,112.693384 794.299424,110.080153 L794.299424,110.080153 L794.299424,94.7022901 C784.696097,97.5165394 775.598209,98.9236641 767.005758,98.9236641 C756.998081,99.024173 749.871401,97.6170483 745.62572,94.7022901 C741.278951,91.7875318 738.802303,86.9128499 738.195777,80.0782443 L738.195777,80.0782443 L798.090211,80.0782443 C798.696737,76.4599237 799,72.3390585 799,67.7156489 C799,57.966285 796.119002,50.2773537 790.357006,44.648855 C783.786308,38.216285 773.829175,35 760.485605,35 C747.445298,35 737.488164,38.216285 730.614203,44.648855 C723.538068,51.2824427 720,61.1323155 720,74.1984733 C720,88.0687023 723.43698,98.1195929 730.31094,104.351145 C737.387076,110.783715 749.0627,114 765.337812,114 Z M779.981258,67 L738,67 C738.699688,60.7478992 740.848728,56.1596639 744.447122,53.2352941 C747.94556,50.4117647 753.193217,49 760.190094,49 C767.386881,49 772.58456,50.512605 775.783133,53.5378151 C778.781794,56.3613445 780.181169,60.8487395 779.981258,67 L779.981258,67 Z M1136.53404,0.143071181 C1151.34977,0.143071181 1165.1104,5.09246354 1175.28855,14.0850909 C1183.53805,21.378673 1193.36777,34.8429902 1193.36777,57.6545179 C1193.36777,97.0575909 1163.90806,114.998523 1136.53404,114.998523 L1136.53404,114.998523 L998.152421,114.998523 C983.380853,114.998523 969.654582,110.05898 959.505877,101.090976 C951.285819,93.8269427 941.480639,80.3921742 941.480639,57.6545179 C941.480639,18.1381753 970.856919,0.143071181 998.152421,0.143071181 L998.152421,0.143071181 Z M849.986985,35 C861.324657,35 870.890817,36.0553435 878.685466,38.1660305 L878.685466,38.1660305 L878.685466,53.5438931 L877.739348,53.2794804 C869.201619,50.9430329 860.052061,49.7748092 850.290672,49.7748092 C843.407086,49.7748092 838.598698,50.3778626 835.86551,51.5839695 C833.436009,52.6895674 832.221258,54.5489822 832.221258,57.1622137 C832.221258,59.4739186 833.182936,61.18257 835.106291,62.2881679 C836.725958,63.1927481 839.864064,64.1475827 844.520607,65.1526718 L844.520607,65.1526718 L859.704989,68.0171756 L860.348634,68.1569263 C868.015138,69.8484713 873.62127,72.0633381 877.167028,74.8015267 C881.722343,78.3193384 884,83.4955471 884,90.3301527 C884,98.471374 881.114967,104.451654 875.344902,108.270992 C869.574837,112.090331 860.413594,114 847.861171,114 C834.296457,114 823.313087,112.542621 814.911063,109.627863 L814.911063,109.627863 L814.911063,94.25 L815.921038,94.565803 C826.030265,97.6720615 836.423903,99.2251908 847.101952,99.2251908 C853.985539,99.2251908 858.895155,98.5216285 861.830803,97.1145038 C864.462762,95.807888 865.778742,93.7977099 865.778742,91.0839695 C865.778742,88.6717557 864.76645,86.8625954 862.741866,85.6564885 C860.91974,84.5508906 857.933478,83.596056 853.78308,82.7919847 L853.78308,82.7919847 L837.383948,79.4751908 L836.748622,79.3434794 C829.183273,77.7470837 823.726212,75.5797916 820.37744,72.8416031 C816.125813,69.3237913 814,64.1978372 814,57.4637405 C814,49.6240458 816.783803,43.9452926 822.35141,40.4274809 C828.020246,36.8091603 837.232104,35 849.986985,35 Z M1136.53404,10.5392575 L998.152421,10.5392575 C975.101905,10.5392575 951.840366,25.1067228 951.840366,57.6545179 C951.840366,90.0890434 975.101905,104.597411 998.152421,104.597411 L998.152421,104.597411 L1136.53404,104.597411 C1159.66307,104.597411 1183.00313,90.0890434 1183.00313,57.6545179 C1183.00313,25.1067228 1159.66307,10.5392575 1136.53404,10.5392575 L1136.53404,10.5392575 Z M1141.78256,51 C1144.92653,51 1147.47917,53.5536709 1147.47917,56.7076266 L1147.47917,86.1166645 C1147.47917,88.1586171 1145.99588,89 1144.69492,89 C1143.58615,89 1142.65479,88.5325651 1141.54602,88.0651301 L1133.10459,83.9763045 C1128.5611,85.6492296 1121.60296,89 1104.63632,89 C1077.92731,89 1064.47917,79.4249644 1064.47917,57.1307782 C1064.47917,56.2205102 1064.51859,55.3397643 1064.5728,54.4688593 C1065.80969,58.346109 1068.12579,62.5579438 1072.77769,66.2777418 C1080.22369,72.2412275 1091.63169,74.9671112 1106.02598,74.9671112 C1120.30693,74.9671112 1128.28021,73.5746472 1131.52767,72.3642367 L1131.52767,64.0980189 L1119.62688,64.0980189 C1115.69445,64.0980189 1112.50612,60.9096206 1112.50612,56.9634857 L1112.50612,51 L1141.78256,51 Z M1050.25101,27 L1050.25101,32.2884677 C1050.25101,36.6486142 1046.77043,40.189073 1042.48402,40.189073 L1042.48402,40.189073 L999.037419,40.189073 L997.474312,50.005575 C1002.6248,49.6352342 1011.54227,48.9784963 1017.70247,48.9784963 C1037.10053,48.9784963 1054.47917,50.005575 1054.47917,68.3399172 C1054.47917,83.1140491 1041.60538,89 1015.86266,89 C1004.52771,89 994.751011,87.7359032 988.153924,86.5211851 C984.284992,85.8101306 981.479167,82.3684294 981.479167,78.368748 L981.479167,78.368748 L981.479167,71.7026123 C989.202468,73.4802485 1003.72674,75.7269831 1015.6782,75.7269831 C1032.50344,75.7269831 1037.56169,74.596209 1037.56169,68.3399172 C1037.56169,61.7922905 1032.22674,61.1355527 1015.86266,61.1355527 L1015.30437,61.1356703 C1012.352,61.136934 1009.79445,61.1485422 1007.24317,61.177993 L1006.28598,61.1898881 C1001.65364,61.251565 996.882383,61.3749369 989.658778,61.6046512 C983.318972,61.8861102 981.386934,57.8617394 982.396642,52.3461293 L982.396642,52.3461293 L986.085963,30.2491239 C986.396642,28.3727302 987.99373,27 989.867516,27 L989.867516,27 L1050.25101,27 Z M1111.79424,26 C1130.0764,26 1141.11571,28.2462315 1145.47917,29.4637685 L1145.47917,29.4637685 L1145.47917,35.0346214 C1145.47917,39.3233333 1141.72215,42.6181375 1137.53126,42.0019147 C1131.16603,41.0577023 1122.08412,40.0687641 1111.79424,40.0687641 C1091.29338,40.0687641 1081.26975,44.1040295 1081.26975,57.3379111 C1081.26975,64.2107832 1083.65609,68.7280939 1088.02941,71.5110355 C1088.29566,71.6799999 1088.09351,72.087502 1087.79768,71.9831417 C1077.38454,68.0671452 1069.51059,61.045187 1067.80958,51.8912967 C1066.67558,45.7737945 1068.702,41.470174 1070.2403,39.2239425 C1077.31552,29.8663011 1091.37227,26 1111.79424,26 Z" id="V27Series"></path>
            </g>
        </g>
    </g>
</svg>